<?xml version="1.0" encoding="UTF-8" standalone="no"?>
<svg
   xmlns:dc="http://purl.org/dc/elements/1.1/"
   xmlns:cc="http://creativecommons.org/ns#"
   xmlns:rdf="http://www.w3.org/1999/02/22-rdf-syntax-ns#"
   xmlns:svg="http://www.w3.org/2000/svg"
   xmlns="http://www.w3.org/2000/svg"
   xmlns:sodipodi="http://sodipodi.sourceforge.net/DTD/sodipodi-0.dtd"
   xmlns:inkscape="http://www.inkscape.org/namespaces/inkscape"
   id="svg"
   version="1.1"
   width="500"
   height="523"
   style="display: block;"
   inkscape:version="0.91 r13725"
   sodipodi:docname="black_on_white.svg">
  <metadata
     id="metadata10">
    <rdf:RDF>
      <cc:Work
         rdf:about="">
        <dc:format>image/svg+xml</dc:format>
        <dc:type
           rdf:resource="http://purl.org/dc/dcmitype/StillImage" />
        <dc:title />
      </cc:Work>
    </rdf:RDF>
  </metadata>
  <defs
     id="defs8" />
  <sodipodi:namedview
     pagecolor="#ffffff"
     bordercolor="#666666"
     borderopacity="1"
     objecttolerance="10"
     gridtolerance="10"
     guidetolerance="10"
     inkscape:pageopacity="0"
     inkscape:pageshadow="2"
     inkscape:window-width="1366"
     inkscape:window-height="705"
     id="namedview6"
     showgrid="false"
     inkscape:zoom="0.85"
     inkscape:cx="185.04381"
     inkscape:cy="263.13919"
     inkscape:window-x="-8"
     inkscape:window-y="-8"
     inkscape:window-maximized="1"
     inkscape:current-layer="svgg" />
  <g
     id="svgg">
    <path
       id="path0"
       d="m 0.95238095,208.24762 0,209.2 199.99999905,0 200,0 0,-209.2 0,-209.20000095 -200,0 -199.99999905,0 0,209.20000095 M 257.77438,44.422619 c 4.925,3.425 6.274,9.009 3.378,13.983 -1.322,2.271 -62.259,33.117 -177.578999,89.889001 -9.779,4.814 -17.789,9.12 -17.8,9.568 -0.012,0.448 10.415,5.994 23.169,12.325 26.981999,13.393 29.443999,15.801 24.877999,24.334 -4.308,8.049 -6.389,7.513 -44.893999,-11.566 -36.544,-18.107 -37.574,-18.795 -37.574,-25.108 0,-6.375 -0.538,-6.05 58.58,-35.375 29.963999,-14.864 78.091999,-38.789001 106.949999,-53.167001 55.657,-27.729 56.376,-28.023 60.892,-24.883 m 19.28,114.314001 c 12.044,5.989 36.754,18.23 54.91,27.202 35.823,17.7 36.178,17.939 36.185,24.391 0.005,4.745 -2.71,7.644 -11.197,11.957 -48.814,24.809 -101.681,50.361 -104.197,50.361 -2.155,0 -15.536,-6.274 -53.746,-25.2 -27.982,-13.86 -51.397,-25.2 -52.032,-25.2 -0.636,0 -12.602,5.71 -26.591,12.69 -88.193999,44.002 -81.947999,41.64 -87.564999,33.122 -5.25,-7.961 -1.95,-11.461 21.956,-23.287 10.656,-5.272 55.554999,-27.55 99.774999,-49.508 44.22,-21.958 83.82,-41.599 88,-43.646 10.509,-5.148 9.354,-5.387 34.502,7.118 m -65.502,30.869 c -22.11,11.028 -40.2,20.371 -40.2,20.763 0,0.746 79.915,40.679 81.41,40.679 0.473,0 15.919,-7.497 34.325,-16.659 18.406,-9.162 36.615,-18.214 40.465,-20.115 3.85,-1.901 7,-3.685 7,-3.964 0,-0.565 -81.222,-40.893 -82.189,-40.808 -0.336,0.03 -18.701,9.077 -40.811,20.104 m -63.775,114.619 c 31.666,15.724 69.543,34.528 84.171,41.786 29.463,14.619 30.604,15.429 30.604,21.729 0,5.58 -3.038,8.974 -8.505,9.499 -3.975,0.382 -4.846,-0.008 -49.571,-22.199 -25.038,-12.423 -63.565,-31.532 -85.616,-42.465 -43.861999,-21.747 -43.132999,-21.27 -43.040999,-28.171 0.084,-6.238 6.348,-10.963 12.358,-9.321 1.114,0.304 27.933999,13.418 59.599999,29.142"
       style="fill:none;fill-rule:evenodd;stroke:none;opacity:1"
       inkscape:connector-curvature="0" />
    <path
       id="path1"
       d="m 395.54976,271.78251 c -14.378,28.858 -38.303,76.986 -53.167,106.95 -29.325,59.11802 -29,58.58002 -35.375,58.58002 -6.313,0 -7.001,-1.03 -25.108,-37.57402 -19.079,-38.505 -19.615,-40.586 -11.566,-44.894 8.533,-4.566 10.941,-2.104 24.334,24.878 6.331,12.754 11.877,23.181 12.325,23.169 0.448,-0.011 4.754,-8.021 9.568,-17.8 56.772,-115.32 87.618,-176.257 89.889,-177.579 6.935,-4.037 15.442,0.733 15.3,8.578 -0.047,2.562 -5.411,13.964 -26.2,55.692 m -82.313,-45.67 c -2.047,4.18 -21.688,43.78 -43.646,88 -21.958,44.22 -44.236,89.119 -49.508,99.775 -11.826,23.90602 -15.326,27.20601 -23.287,21.95602 -8.518,-5.617 -10.88,0.629 33.122,-87.56502 6.98,-13.989 12.69,-25.955 12.69,-26.591 0,-0.635 -11.34,-24.05 -25.2,-52.032 -18.926,-38.21 -25.2,-51.591 -25.2,-53.746 0,-2.516 25.552,-55.383 50.361,-104.19699 4.313,-8.487 7.212,-11.202 11.957,-11.197 6.452,0.007 6.691,0.362 24.391,36.18499 8.972,18.156 21.213,42.866 27.202,54.91 12.505,25.148 12.266,23.993 7.118,34.502 m -38.007,-51.211 c -11.097,-22.434 -20.405,-40.789 -20.684,-40.789 -0.279,0 -2.063,3.15 -3.964,7 -1.901,3.85 -10.953,22.059 -20.115,40.465 -9.162,18.406 -16.659,33.852 -16.659,34.325 0,1.495 39.933,81.41 40.679,81.41 0.633,0 40.732,-79.491 40.867,-81.011 0.03,-0.337 -9.026,-18.967 -20.124,-41.4 m -85.483,210.316 c -0.959,4.472 -4.729,7.567 -9.295,7.628 -6.901,0.092 -6.424,0.821 -28.171,-43.041 -10.933,-22.051 -30.042,-60.578 -42.465,-85.616 -22.190996,-44.725 -22.580996,-45.596 -22.198996,-49.571 0.525,-5.467 3.919,-8.505 9.499,-8.505 6.299996,0 7.109996,1.141 21.728996,30.604 7.258,14.628 26.062,52.505 41.786,84.171 30.614,61.653 29.987,60.267 29.116,64.33"
       style="fill:#000000;fill-rule:evenodd;stroke:none"
       inkscape:connector-curvature="0" />
    <text
       xml:space="preserve"
       style="font-style:normal;font-weight:normal;font-size:40px;line-height:425%;font-family:sans-serif;letter-spacing:0px;word-spacing:0px;fill:#000000;fill-opacity:1;stroke:none;stroke-width:1px;stroke-linecap:butt;stroke-linejoin:miter;stroke-opacity:1"
       x="251.49953"
       y="505.85715"
       id="text4135"
       sodipodi:linespacing="425%"><tspan
         sodipodi:role="line"
         id="tspan4137"
         x="261.49954"
         y="505.85715"
         style="font-style:normal;font-variant:normal;font-weight:normal;font-stretch:normal;font-size:60px;line-height:425%;font-family:'Roboto Condensed';-inkscape-font-specification:'Roboto Condensed, ';text-align:center;letter-spacing:20px;text-anchor:middle;fill:#000000;stroke:#000000;stroke-opacity:1">OCEAN5</tspan></text>
  </g>
</svg>
